<svg xmlns="http://www.w3.org/2000/svg" version="1.1" xmlns:xlink="http://www.w3.org/1999/xlink" xmlns:svgjs="http://svgjs.dev/svgjs" width="1500" height="340" viewBox="0 0 1500 340"><g transform="matrix(1,0,0,1,-0.9090909090909918,0.49675791041710227)"><svg viewBox="0 0 396 90" data-background-color="#ffffff" preserveAspectRatio="xMidYMid meet" height="340" width="1500" xmlns="http://www.w3.org/2000/svg" xmlns:xlink="http://www.w3.org/1999/xlink"><g id="tight-bounds" transform="matrix(1,0,0,1,0.2400000000000091,-0.13149474099276404)"><svg viewBox="0 0 395.52 90.2629894819855" height="90.2629894819855" width="395.52"><g><svg viewBox="0 0 562.4913061082691 128.36808972228707" height="90.2629894819855" width="395.52"><g><rect width="4.517900937330007" height="93.35016654913058" x="140.19505552681588" y="17.508961586578245" fill="#8bc53f" opacity="1" stroke-width="0" stroke="transparent" fill-opacity="1" class="rect-qz-0" data-fill-palette-color="primary" rx="1%" id="qz-0" data-palette-color="#8bc53f"></rect></g><g><rect width="4.517900937330007" height="93.35016654913058" x="150.62643936641032" y="17.508961586578245" fill="#8bc53f" opacity="1" stroke-width="0" stroke="transparent" fill-opacity="1" class="rect-qz-1" data-fill-palette-color="primary" rx="1%" id="qz-1" data-palette-color="#8bc53f"></rect></g><g transform="matrix(1,0,0,1,166.97130610826915,17.741175931227815)"><svg viewBox="0 0 395.52 92.88573785983144" height="92.88573785983144" width="395.52"><g id="textblocktransform"><svg viewBox="0 0 395.52 92.88573785983144" height="92.88573785983144" width="395.52" id="textblock"><g><svg viewBox="0 0 395.52 50.0981285879497" height="50.0981285879497" width="395.52"><g transform="matrix(1,0,0,1,0,0)"><svg width="395.52" viewBox="2.34 -37.84 299.126842104768 37.89" height="50.0981285879497" data-palette-color="#8bc53f"><path d="M37.33-10.3L37.33-10.3Q37.33-8.42 36.85-6.92 36.38-5.42 35.6-4.27 34.81-3.13 33.76-2.32 32.71-1.51 31.59-1 30.47-0.49 29.31-0.24 28.15 0 27.12 0L27.12 0 2.64 0 2.64-6.35 27.12-6.35Q28.96-6.35 29.97-7.42 30.98-8.5 30.98-10.3L30.98-10.3Q30.98-11.18 30.71-11.91 30.44-12.65 29.94-13.18 29.44-13.72 28.72-14.01 28-14.31 27.12-14.31L27.12-14.31 12.52-14.31Q10.99-14.31 9.2-14.86 7.42-15.41 5.9-16.63 4.37-17.85 3.36-19.82 2.34-21.8 2.34-24.66L2.34-24.66Q2.34-27.51 3.36-29.48 4.37-31.45 5.9-32.68 7.42-33.91 9.2-34.46 10.99-35.01 12.52-35.01L12.52-35.01 34.13-35.01 34.13-28.66 12.52-28.66Q10.72-28.66 9.7-27.56 8.69-26.46 8.69-24.66L8.69-24.66Q8.69-22.83 9.7-21.77 10.72-20.7 12.52-20.7L12.52-20.7 27.12-20.7 27.17-20.7Q28.2-20.68 29.35-20.42 30.49-20.17 31.63-19.63 32.76-19.09 33.79-18.27 34.81-17.46 35.61-16.31 36.4-15.16 36.87-13.67 37.33-12.18 37.33-10.3ZM70.6-17.5L70.6-8.91Q70.6-7.28 70.19-5.97 69.77-4.66 69.09-3.67 68.41-2.69 67.5-1.99 66.6-1.29 65.61-0.85 64.62-0.42 63.61-0.21 62.6 0 61.69 0L61.69 0 50.24 0Q48.92 0 47.36-0.46 45.8-0.93 44.47-1.99 43.14-3.05 42.25-4.75 41.35-6.45 41.35-8.91L41.35-8.91 41.35-17.5Q41.35-19.95 42.25-21.64 43.14-23.34 44.47-24.4 45.8-25.46 47.36-25.93 48.92-26.39 50.24-26.39L50.24-26.39 61.69-26.39Q64.13-26.39 65.84-25.51 67.55-24.63 68.6-23.3 69.65-21.97 70.13-20.41 70.6-18.85 70.6-17.5L70.6-17.5ZM64.26-8.91L64.26-17.46Q64.26-18.77 63.6-19.41 62.94-20.04 61.69-20.04L61.69-20.04 50.29-20.04Q49.02-20.04 48.36-19.4 47.7-18.75 47.7-17.5L47.7-17.5 47.7-8.91Q47.7-7.67 48.36-7.01 49.02-6.35 50.29-6.35L50.29-6.35 61.69-6.35Q62.99-6.35 63.62-7.01 64.26-7.67 64.26-8.91L64.26-8.91ZM99.36-26.39L99.36-20.04 85-20.04 85-26.39 99.36-26.39ZM99.36-37.84L99.36-31.49 85.05-31.49Q83.76-31.49 83.1-30.85 82.44-30.2 82.44-28.96L82.44-28.96 82.44 0 76.09 0 76.09-28.96Q76.09-30.59 76.51-31.88 76.92-33.18 77.62-34.17 78.32-35.16 79.22-35.85 80.12-36.55 81.11-36.99 82.1-37.43 83.1-37.63 84.1-37.84 85-37.84L85-37.84 99.36-37.84ZM127.51-26.39L127.51-20.04 116.42-20.04 116.42 0 110 0 110-20.04 101.75-20.04 101.75-26.39 110-26.39 110-35.01 116.42-35.01 116.42-26.39 127.51-26.39ZM160.54-37.55L160.54-8.91Q160.54-7.28 160.12-5.97 159.71-4.66 159.02-3.67 158.34-2.69 157.44-1.99 156.53-1.29 155.54-0.85 154.56-0.42 153.54-0.21 152.53 0 151.63 0L151.63 0 140.18 0Q138.54 0 137.25-0.42 135.95-0.83 134.96-1.53 133.97-2.22 133.28-3.13 132.58-4.03 132.14-5.02 131.7-6.01 131.5-7.02 131.29-8.03 131.29-8.91L131.29-8.91 131.29-17.5Q131.29-19.95 132.18-21.64 133.07-23.34 134.4-24.4 135.73-25.46 137.29-25.93 138.86-26.39 140.18-26.39L140.18-26.39 151.63-26.39 151.63-20.04 140.22-20.04Q138.95-20.04 138.3-19.4 137.64-18.75 137.64-17.5L137.64-17.5 137.64-8.96Q137.64-7.67 138.28-7.01 138.93-6.35 140.18-6.35L140.18-6.35 151.63-6.35Q152.92-6.35 153.55-7.01 154.19-7.67 154.19-8.91L154.19-8.91 154.19-37.55 160.54-37.55ZM194.98-17.65L194.98-17.65Q194.98-16.33 194.52-14.81 194.05-13.28 193.02-11.98 191.98-10.67 190.31-9.79 188.63-8.91 186.24-8.91L186.24-8.91 174.79-8.91 174.79-14.94 186.24-14.94Q187.54-14.94 188.24-15.73 188.95-16.53 188.95-17.7L188.95-17.7Q188.95-18.95 188.16-19.65 187.37-20.36 186.24-20.36L186.24-20.36 174.79-20.36Q173.5-20.36 172.79-19.57 172.08-18.77 172.08-17.6L172.08-17.6 172.08-8.74Q172.08-7.47 172.88-6.76 173.67-6.05 174.84-6.05L174.84-6.05 186.24-6.05 186.24 0 174.79 0Q173.47 0 171.95-0.46 170.42-0.93 169.12-1.97 167.81-3 166.93-4.68 166.05-6.35 166.05-8.74L166.05-8.74 166.05-17.65Q166.05-18.97 166.52-20.5 166.98-22.02 168.02-23.33 169.05-24.63 170.73-25.51 172.4-26.39 174.79-26.39L174.79-26.39 186.24-26.39Q187.56-26.39 189.09-25.93 190.61-25.46 191.92-24.43 193.22-23.39 194.1-21.72 194.98-20.04 194.98-17.65ZM224.01-26.39L230.75-26.39Q229.67-23.05 228.23-19.8 226.79-16.55 224.92-13.61 223.06-10.67 220.75-8.17 218.44-5.66 215.65-3.85 212.85-2.03 209.57-0.99 206.28 0.05 202.45 0.05L202.45 0.05Q201.79 0.05 201.21-0.2 200.62-0.44 200.18-0.87 199.74-1.29 199.5-1.87 199.25-2.44 199.25-3.1L199.25-3.1 199.25-26.39 205.6-26.39 205.6-6.54Q207.92-6.54 210.06-7.54 212.19-8.54 214.1-10.19 216-11.84 217.62-13.94 219.25-16.04 220.52-18.25 221.79-20.46 222.68-22.58 223.57-24.71 224.01-26.39L224.01-26.39ZM236.7-3.2L236.7-3.2Q236.7-2.54 236.44-1.97 236.19-1.39 235.76-0.96 235.33-0.54 234.76-0.29 234.19-0.05 233.55-0.05L233.55-0.05Q232.89-0.05 232.32-0.29 231.75-0.54 231.32-0.96 230.89-1.39 230.65-1.97 230.4-2.54 230.4-3.2L230.4-3.2Q230.4-3.83 230.65-4.41 230.89-4.98 231.32-5.41 231.75-5.83 232.32-6.09 232.89-6.35 233.55-6.35L233.55-6.35Q234.19-6.35 234.76-6.09 235.33-5.83 235.76-5.41 236.19-4.98 236.44-4.41 236.7-3.83 236.7-3.2ZM270.24-26.39L270.24-3.2Q270.24-2.51 270-1.93 269.76-1.34 269.33-0.92 268.9-0.49 268.33-0.24 267.75 0 267.09 0L267.09 0 252.74 0Q251.57 0 250.24-0.27 248.91-0.54 247.61-1.14 246.32-1.73 245.11-2.65 243.9-3.56 243-4.87 242.09-6.18 241.54-7.89 241-9.59 241-11.74L241-11.74 241-26.39 247.34-26.39 247.34-11.74Q247.34-10.5 247.77-9.51 248.2-8.52 248.93-7.81 249.66-7.1 250.65-6.73 251.64-6.35 252.79-6.35L252.79-6.35 263.9-6.35 263.9-26.39 270.24-26.39ZM301.2-24.44L301.2-24.44Q301.59-23.54 301.41-22.61 301.22-21.68 300.56-21L300.56-21 285.89-6.35 301.15-6.35 301.15 0 278.25 0Q277.27 0 276.48-0.55 275.69-1.1 275.29-1.95L275.29-1.95Q274.93-2.86 275.11-3.8 275.29-4.74 276-5.44L276-5.44 290.6-20.04 275.34-20.04 275.34-26.39 298.29-26.39Q299.25-26.39 300.04-25.88 300.83-25.37 301.2-24.44Z" opacity="1" transform="matrix(1,0,0,1,0,0)" fill="#8bc53f" class="wordmark-text-0" data-fill-palette-color="primary" id="text-0"></path></svg></g></svg></g><g transform="matrix(1,0,0,1,0,61.92509439247851)"><svg viewBox="0 0 221.64417641144402 30.960643467352917" height="30.960643467352917" width="221.64417641144402"><g transform="matrix(1,0,0,1,0,0)"><svg width="221.64417641144402" viewBox="4 -32.05 299.58 41.849999999999994" height="30.960643467352917" data-palette-color="#8bc53f"><path d="M10.6 0L4 0 4-29.4 10.6-29.4 10.6 0ZM27.85 0L26.3 0Q22.5 0 21.1-1.6 19.7-3.2 19.7-6.4L19.7-6.4 19.7-18.1 15.6-18.1 15.6-22.4 17.7-22.4Q18.65-22.4 19.07-22.7 19.5-23 19.7-23.9L19.7-23.9 20.7-29.25 25.8-29.25 25.8-22.4 36.2-22.4 36.2-18.1 25.8-18.1 25.8-6.35Q25.8-5.1 26.4-4.7 27-4.3 28.2-4.3L28.2-4.3 35.25-4.3 35.75-0.5Q34.7-0.35 32.55-0.18 30.4 0 27.85 0L27.85 0ZM74.74 0L60.84 0Q57.29 0 55.29-1 53.29-2 52.49-4 51.69-6 51.69-8.95L51.69-8.95 51.69-20.1Q51.69-24.9 53.84-27.18 55.99-29.45 60.84-29.45L60.84-29.45 75.89-29.45Q79.34-29.45 81.17-29.08 82.99-28.7 82.99-28.3L82.99-28.3 81.99-24.15Q81.14-24.3 76.97-24.48 72.79-24.65 64.84-24.65L64.84-24.65 62.29-24.65Q58.29-24.65 58.29-21.1L58.29-21.1 58.29-8.35Q58.29-6.65 59.17-5.73 60.04-4.8 62.29-4.8L62.29-4.8 64.34-4.8Q72.64-4.8 77.22-4.98 81.79-5.15 82.89-5.35L82.89-5.35 84.94-2.05Q84.94-1.8 84.12-1.3 83.29-0.8 81.09-0.4 78.89 0 74.74 0L74.74 0ZM108.84 0L95.04 0Q91.69 0 90.07-1.35 88.44-2.7 88.44-5.75L88.44-5.75 88.44-16Q88.44-16.75 88.57-17.82 88.69-18.9 89.27-19.95 89.84-21 91.22-21.7 92.59-22.4 95.04-22.4L95.04-22.4 108.84-22.4Q111.34-22.4 112.69-21.7 114.04-21 114.62-19.95 115.19-18.9 115.32-17.82 115.44-16.75 115.44-16L115.44-16 115.44-6.4Q115.44-5.5 115.32-4.4 115.19-3.3 114.59-2.3 113.99-1.3 112.64-0.65 111.29 0 108.84 0L108.84 0ZM96.94-4.3L96.94-4.3 106.94-4.3Q109.39-4.3 109.39-6.3L109.39-6.3 109.39-16.1Q109.39-18.1 106.94-18.1L106.94-18.1 96.94-18.1Q94.54-18.1 94.54-16.1L94.54-16.1 94.54-6.3Q94.54-4.3 96.94-4.3ZM127.04 0L120.94 0 120.94-22.4 125.04-22.4 126.29-21.8Q127.74-22.05 129.84-22.23 131.94-22.4 134.84-22.4L134.84-22.4 137.34-22.4Q138.79-22.4 140.14-22.03 141.49-21.65 142.14-20.95L142.14-20.95Q143.44-21.6 145.74-22 148.04-22.4 151.74-22.4L151.74-22.4 154.24-22.4Q156.74-22.4 158.09-21.7 159.44-21 160.01-19.95 160.59-18.9 160.71-17.82 160.84-16.75 160.84-16L160.84-16 160.84 0 154.74 0 154.74-16.1Q154.74-18.1 152.34-18.1L152.34-18.1 145.34-18.1Q144.54-18.1 144.24-17.9 143.94-17.7 143.94-17L143.94-17 143.94 0 137.84 0 137.84-16.1Q137.84-18.1 135.44-18.1L135.44-18.1 128.54-18.1Q127.59-18.1 127.31-17.93 127.04-17.75 127.04-17L127.04-17 127.04 0ZM172.69 9.3L166.59 9.3 166.59-22.4 170.69-22.4 171.94-21.75Q174.19-22 177.31-22.2 180.44-22.4 184.44-22.4L184.44-22.4 186.99-22.4Q189.49-22.4 190.84-21.75 192.19-21.1 192.76-20.1 193.34-19.1 193.46-18 193.59-16.9 193.59-16L193.59-16 193.59-6.4Q193.59-5.65 193.46-4.58 193.34-3.5 192.76-2.45 192.19-1.4 190.84-0.7 189.49 0 186.99 0L186.99 0 184.44 0Q180.64 0 177.69-0.2 174.74-0.4 172.69-0.6L172.69-0.6 172.69 9.3ZM174.24-4.3L174.24-4.3 185.09-4.3Q186.04-4.3 186.76-4.8 187.49-5.3 187.49-6.3L187.49-6.3 187.49-16.1Q187.54-17.2 186.96-17.65 186.39-18.1 185.09-18.1L185.09-18.1 182.59-18.1Q179.39-18.1 176.91-17.98 174.44-17.85 172.69-17.7L172.69-17.7 172.69-5.85Q172.69-4.75 172.91-4.53 173.14-4.3 174.24-4.3ZM208.03 0L205.53 0Q201.73 0 200.03-1.78 198.33-3.55 198.33-6.65L198.33-6.65Q198.33-9.9 200.11-11.65 201.88-13.4 205.53-13.4L205.53-13.4 208.08-13.4Q211.83-13.4 214.83-13.2 217.83-13 219.78-12.8L219.78-12.8 219.78-16.1Q219.78-16.55 219.68-17.03 219.58-17.5 219.08-17.8 218.58-18.1 217.38-18.1L217.38-18.1 214.88-18.1Q209.43-18.1 205.78-17.93 202.13-17.75 200.83-17.6L200.83-17.6 200.28-21.4Q200.28-22.1 204.08-22.25 207.88-22.4 216.78-22.4L216.78-22.4 219.28-22.4Q221.78-22.4 223.13-21.7 224.48-21 225.06-19.95 225.63-18.9 225.76-17.82 225.88-16.75 225.88-16L225.88-16 225.88 0 221.78 0 219.83-1Q217.73-0.65 214.78-0.33 211.83 0 208.03 0L208.03 0ZM206.83-4.3L206.83-4.3 218.28-4.3Q219.38-4.3 219.58-4.5 219.78-4.7 219.78-5.75L219.78-5.75 219.78-9.6 206.83-9.6Q205.48-9.6 204.96-8.95 204.43-8.3 204.43-6.9L204.43-6.9Q204.43-5.5 205.03-4.9 205.63-4.3 206.83-4.3ZM237.73 0L231.63 0 231.63-22.4 235.73-22.4 237.73-21.4Q239.83-21.8 242.78-22.1 245.73-22.4 249.53-22.4L249.53-22.4 252.03-22.4Q254.53-22.4 255.88-21.7 257.23-21 257.81-19.95 258.38-18.9 258.51-17.82 258.63-16.75 258.63-16L258.63-16 258.63 0 252.53 0 252.53-16.1Q252.53-18.1 250.13-18.1L250.13-18.1 239.23-18.1Q238.28-18.1 238.01-17.93 237.73-17.75 237.73-17L237.73-17 237.73 0ZM267.93-25.55L267.93-25.55Q266.08-25.55 265.23-26.3 264.38-27.05 264.38-28.8L264.38-28.8Q264.38-30.6 265.2-31.33 266.03-32.05 267.93-32.05L267.93-32.05Q269.83-32.05 270.68-31.33 271.53-30.6 271.53-28.8L271.53-28.8Q271.53-27.1 270.68-26.33 269.83-25.55 267.93-25.55ZM270.98 0L264.88 0 264.88-22.4 270.98-22.4 270.98 0ZM280.98 9.8L279.63 9.8Q277.23 9.8 275.23 9.25 273.23 8.7 272.53 8.25L272.53 8.25 274.03 3.75Q274.88 4.1 276.45 4.58 278.03 5.05 280.03 5.05L280.03 5.05 280.58 5.05Q282.88 5.05 284.65 3.68 286.43 2.3 287.38 0L287.38 0 284.88 0 275.08-22.4 282.08-22.4 287.83-8.6 289.13-5 289.63-5 290.93-8.6 296.78-22.4 303.58-22.4 302.78-19.35Q301.83-17.4 300.6-14.88 299.38-12.35 298.08-9.65 296.78-6.95 295.55-4.45 294.33-1.95 293.38 0L293.38 0Q291.93 3 290.2 5.2 288.48 7.4 286.25 8.6 284.03 9.8 280.98 9.8L280.98 9.8Z" opacity="1" transform="matrix(1,0,0,1,0,0)" fill="#8bc53f" class="slogan-text-1" data-fill-palette-color="secondary" id="text-1"></path></svg></g></svg></g></svg></g></svg></g><g><svg viewBox="0 0 128.36808972228707 128.36808972228707" height="128.36808972228707" width="128.36808972228707"><g><svg xmlns="http://www.w3.org/2000/svg" xmlns:xlink="http://www.w3.org/1999/xlink" version="1.1" x="0" y="0" viewBox="5.5 5.5 53 53" enable-background="new 0 0 64 64" xml:space="preserve" height="128.36808972228707" width="128.36808972228707" class="icon-icon-0" data-fill-palette-color="accent" id="icon-0"><g fill="#5d9943" data-fill-palette-color="accent"><g fill="#5d9943" data-fill-palette-color="accent"><path d="M44 19.5H20c-0.276 0-0.5 0.224-0.5 0.5v24c0 0.276 0.224 0.5 0.5 0.5h24c0.276 0 0.5-0.224 0.5-0.5V20C44.5 19.724 44.276 19.5 44 19.5zM43.5 43.5h-23v-23h23V43.5z" fill="#5d9943" data-fill-palette-color="accent"></path><path d="M58 32.5c0.276 0 0.5-0.224 0.5-0.5s-0.224-0.5-0.5-0.5h-9.5v-7H58c0.276 0 0.5-0.224 0.5-0.5s-0.224-0.5-0.5-0.5h-9.5V16c0-0.276-0.224-0.5-0.5-0.5h-7.5V6c0-0.276-0.224-0.5-0.5-0.5S39.5 5.724 39.5 6v9.5h-7V6c0-0.276-0.224-0.5-0.5-0.5S31.5 5.724 31.5 6v9.5h-7V6c0-0.276-0.224-0.5-0.5-0.5S23.5 5.724 23.5 6v9.5H16c-0.276 0-0.5 0.224-0.5 0.5v7.5H6c-0.276 0-0.5 0.224-0.5 0.5s0.224 0.5 0.5 0.5h9.5v7H6c-0.276 0-0.5 0.224-0.5 0.5s0.224 0.5 0.5 0.5h9.5v7H6c-0.276 0-0.5 0.224-0.5 0.5s0.224 0.5 0.5 0.5h9.5V48c0 0.276 0.224 0.5 0.5 0.5h7.5V58c0 0.276 0.224 0.5 0.5 0.5s0.5-0.224 0.5-0.5v-9.5h7V58c0 0.276 0.224 0.5 0.5 0.5s0.5-0.224 0.5-0.5v-9.5h7V58c0 0.276 0.224 0.5 0.5 0.5s0.5-0.224 0.5-0.5v-9.5H48c0.276 0 0.5-0.224 0.5-0.5v-7.5H58c0.276 0 0.5-0.224 0.5-0.5s-0.224-0.5-0.5-0.5h-9.5v-7H58zM47.5 47.5h-31v-31h31V47.5z" fill="#5d9943" data-fill-palette-color="accent"></path></g></g></svg></g></svg></g></svg></g><defs></defs></svg><rect width="395.52" height="90.2629894819855" fill="none" stroke="none" visibility="hidden"></rect></g></svg></g></svg>